<svg width="71" height="15" viewBox="0 0 71 15" fill="none" xmlns="http://www.w3.org/2000/svg">
<path d="M66.0856 0H70.6456V14.848H66.0856V0ZM54.0056 8.896V5.456H60.5016C60.6296 5.04 60.6936 4.656 60.6936 4.368C60.6936 3.952 60.4376 3.76 59.8936 3.76C58.8376 3.76 58.1496 3.792 54.4856 4L54.3256 0.624001C56.1976 0.400001 58.5016 0.272 60.2456 0.272C63.8936 0.272 65.0136 0.976001 65.0136 3.28C65.0136 3.936 64.9336 4.672 64.7576 5.456H65.1736V8.896H58.7896C58.7416 9.2 58.7256 9.488 58.7256 9.76C58.7256 10.496 58.9016 10.672 59.6696 10.672C60.8056 10.672 62.3416 10.56 65.3336 10.304L65.4936 13.696C63.3656 14.048 61.1096 14.256 59.2536 14.256C55.7496 14.256 54.3256 13.312 54.3256 11.008C54.3256 10.336 54.3896 9.6 54.5176 8.896H54.0056Z" fill="white"/>
<path d="M48.2438 0H52.5638V14.848H48.2438V8.784H47.6678C47.2678 12.48 45.2998 14.416 41.8278 14.416C37.9718 14.416 35.9878 12.048 35.9238 7.536H40.2438C40.2758 9.456 40.7718 10.608 41.8278 10.608C42.9158 10.608 43.4278 9.376 43.4278 7.296C43.4278 5.136 42.9158 3.904 41.8278 3.904C40.7718 3.904 40.2758 5.136 40.2438 7.376L35.9238 7.056C35.9878 2.56 37.9718 0.192 41.8278 0.192C45.0438 0.192 46.9478 1.824 47.5398 4.944H48.2438V0Z" fill="white"/>
<path d="M17.8418 8.23999H35.2818V11.76H29.0418V14.848H24.0818V11.76H17.8418V8.23999ZM18.4498 0.86399C21.9538 0.447989 25.2818 0.23999 27.8578 0.23999C33.0738 0.23999 34.6738 0.815989 34.6738 3.48799C34.6738 4.59199 34.4818 6.22399 34.0498 7.83999L29.3778 7.58399C29.6978 6.20799 29.8098 5.58399 29.8098 4.91199C29.8098 4.11199 29.5538 3.91999 28.3698 3.91999C27.6498 3.91999 26.7378 3.93599 25.5698 3.99999C25.4738 5.10399 25.2658 6.36799 24.9938 7.67999L20.3698 7.42399C20.6098 6.20799 20.7858 5.11999 20.8818 4.25599C20.2098 4.28799 19.5218 4.33599 18.7698 4.38399L18.4498 0.86399Z" fill="white"/>
<path d="M12 0H16.32V4.944H17.44V8.944H16.32V14.848H12V0ZM0 0.576C3.808 0.176001 7.36 0.176001 11.168 0.576L11.008 4.352C9.056 4.192 7.248 4.112 5.424 4.112C5.232 5.856 5.12 7.472 5.12 8.848C5.12 9.888 5.392 10.16 6.512 10.16C7.92 10.16 9.392 10 11.168 9.792L11.328 13.824C9.584 14.08 7.744 14.256 5.568 14.256C1.792 14.256 0.48 12.96 0.48 9.184C0.48 7.52 0.608 6.128 0.864 4.288C0.624 4.32 0.4 4.336 0.16 4.352L0 0.576Z" fill="white"/>
</svg>
